<svg width="85" height="86" viewBox="0 0 85 86" fill="none" xmlns="http://www.w3.org/2000/svg">
<path d="M40.8568 68.9727C26.9724 68.2376 16.3127 56.3862 17.0477 42.5017C17.7827 28.6173 29.6342 17.9576 43.5186 18.6926C57.4031 19.4276 68.0628 31.2791 67.3278 45.1635C66.5927 59.048 54.7413 69.7077 40.8568 68.9727Z" stroke="white" stroke-width="10"/>
<path d="M37.9205 68.2701L34.0631 78.7849L27.9195 76.5311C27.2986 76.3034 26.7861 75.9506 26.3819 75.4728C25.964 75.0014 25.6899 74.4634 25.5595 73.8588C25.429 73.2543 25.474 72.6516 25.6944 72.0507C25.9259 71.4198 26.3074 70.9065 26.8389 70.5106C27.3667 70.1248 27.9679 69.8796 28.6426 69.7748C29.3136 69.6802 29.9846 69.7559 30.6555 70.002L34.8765 71.5504L36.2982 67.675L37.9205 68.2701ZM34.3034 73.1126L30.2327 71.6193C29.8521 71.4797 29.4704 71.4362 29.0875 71.4889C28.6946 71.5379 28.3516 71.6677 28.0584 71.8783C27.7553 72.0853 27.5431 72.354 27.4219 72.6844C27.308 72.9949 27.3053 73.312 27.4137 73.6358C27.5121 73.956 27.699 74.2518 27.9744 74.5232C28.2397 74.791 28.5627 74.9947 28.9432 75.1343L33.0139 76.6276L34.3034 73.1126Z" fill="black"/>
<path d="M21.2691 56.674C21.8094 57.5059 22.1825 58.3447 22.3883 59.1904C22.5852 60.0419 22.6301 60.8649 22.5229 61.6595C22.4068 62.4599 22.148 63.1876 21.7467 63.8425C21.3364 64.5033 20.7958 65.0515 20.1248 65.4873C19.4539 65.923 18.7377 66.1911 17.9761 66.2914C17.2056 66.3975 16.4356 66.338 15.6661 66.1128C14.8877 65.8934 14.154 65.5177 13.4651 64.9858C12.7673 64.4596 12.1482 63.7806 11.6079 62.9487C11.0734 62.1257 10.7077 61.2884 10.5108 60.4369C10.305 59.5913 10.2601 58.7682 10.3762 57.9678C10.4834 57.1733 10.7421 56.4456 11.1524 55.7848C11.548 55.1209 12.0812 54.5711 12.7521 54.1354C13.423 53.6996 14.1467 53.4331 14.923 53.336C15.6845 53.2356 16.4546 53.2952 17.233 53.5146C18.0025 53.7398 18.7362 54.1155 19.434 54.6416C20.1229 55.1735 20.7346 55.851 21.2691 56.674ZM19.8602 57.589C19.4593 56.9718 19.0083 56.4634 18.5071 56.0639C17.9971 55.6702 17.468 55.3843 16.9198 55.2061C16.3627 55.0337 15.8116 54.9783 15.2664 55.0398C14.7124 55.1071 14.1938 55.2976 13.7107 55.6114C13.2277 55.9251 12.8472 56.3185 12.5694 56.7915C12.2825 57.2703 12.1091 57.7963 12.0489 58.3696C11.9799 58.9486 12.0259 59.5483 12.1871 60.1686C12.3394 60.7947 12.6159 61.4164 13.0168 62.0336C13.4177 62.6508 13.8761 63.1608 14.392 63.5634C14.8931 63.9629 15.4222 64.2489 15.9793 64.4212C16.5275 64.5994 17.0786 64.6549 17.6327 64.5875C18.172 64.5171 18.6832 64.325 19.1662 64.0113C19.6493 63.6975 20.0371 63.3057 20.3297 62.8359C20.6076 62.3629 20.7811 61.8368 20.8502 61.2578C20.9103 60.6845 20.8642 60.0848 20.712 59.4588C20.545 58.8295 20.261 58.2063 19.8602 57.589Z" fill="black"/>
<path d="M16.7628 46.0773L5.60577 45.0971L6.17845 38.5782C6.23633 37.9194 6.44314 37.3326 6.7989 36.8178C7.14496 36.2914 7.59279 35.8863 8.14239 35.6027C8.69198 35.319 9.28556 35.2052 9.9231 35.2612C10.5925 35.32 11.1876 35.5543 11.7084 35.9641C12.2186 36.373 12.6123 36.8895 12.8894 37.5134C13.1559 38.1365 13.2579 38.804 13.1953 39.5159L12.8019 43.9946L16.914 44.3559L16.7628 46.0773ZM17.5217 37.4385L12.1519 40.7895L11.9144 38.9215L17.7267 35.2882L17.5217 37.4385ZM11.1442 43.849L11.5237 39.5297C11.5592 39.1259 11.5015 38.746 11.3508 38.3901C11.2009 38.0236 10.9861 37.7264 10.7063 37.4983C10.4275 37.2597 10.1127 37.1249 9.76208 37.0941C9.43268 37.0652 9.12582 37.1453 8.84151 37.3345C8.55813 37.5131 8.32135 37.7707 8.13115 38.1073C7.9419 38.4333 7.82953 38.7982 7.79406 39.202L7.4146 43.5214L11.1442 43.849Z" fill="black"/>
<path d="M22.0229 28.2425L14.5749 22.2874L11.9171 25.6115L10.6175 24.5723L17.0722 16.4996L18.3718 17.5387L15.6541 20.9378L23.102 26.8929L22.0229 28.2425Z" fill="black"/>
<path d="M29.5543 21.1099L25.7034 10.5927L27.3261 9.99855L31.1769 20.5157L29.5543 21.1099ZM28.5108 16.5847L27.9387 15.0222L35.3458 12.3101L35.9179 13.8726L28.5108 16.5847ZM27.0268 11.8802L26.4546 10.3176L34.3275 7.43498L34.8996 8.99753L27.0268 11.8802Z" fill="black"/>
<path d="M48.9306 19.2323C47.9761 18.9623 47.1429 18.5769 46.431 18.0762C45.722 17.5652 45.1461 16.9755 44.7033 16.3071C44.2635 15.6284 43.9788 14.9104 43.8494 14.1533C43.7229 13.3858 43.7685 12.6172 43.9863 11.8474C44.2041 11.0776 44.5664 10.4042 45.0733 9.82705C45.5832 9.23966 46.2017 8.77726 46.9291 8.43985C47.6593 8.09217 48.4588 7.89157 49.3275 7.83803C50.1991 7.77424 51.1122 7.87737 52.0667 8.14742C53.011 8.41457 53.8376 8.80363 54.5466 9.31461C55.2585 9.81532 55.8344 10.405 56.2743 11.0837C56.717 11.7522 57.0017 12.4701 57.1282 13.2375C57.2679 13.9976 57.2288 14.7625 57.0111 15.5323C56.7933 16.3021 56.4243 16.9793 55.9042 17.5637C55.3973 18.1409 54.7787 18.6033 54.0485 18.9509C53.3212 19.2884 52.5217 19.489 51.6501 19.5528C50.7814 19.6063 49.8749 19.4995 48.9306 19.2323ZM49.388 17.6158C50.0962 17.8161 50.7704 17.9016 51.4106 17.8721C52.0537 17.8323 52.6402 17.6989 53.17 17.4719C53.7027 17.2346 54.1539 16.9133 54.5235 16.508C54.8961 16.0924 55.1607 15.6074 55.3175 15.0532C55.4743 14.499 55.5015 13.9524 55.399 13.4134C55.2994 12.8643 55.0834 12.3542 54.7511 11.8833C54.4216 11.4021 53.992 10.9812 53.4621 10.6207C52.9352 10.2499 52.3176 9.96433 51.6094 9.76397C50.9012 9.56361 50.2204 9.48186 49.567 9.51871C48.9268 9.54821 48.3403 9.6816 47.8076 9.91887C47.2778 10.1459 46.8266 10.4672 46.4541 10.8828C46.0947 11.2911 45.8366 11.7723 45.6798 12.3266C45.523 12.8808 45.4893 13.4311 45.5786 13.9773C45.6811 14.5163 45.8971 15.0263 46.2265 15.5075C46.5589 15.9784 46.9885 16.3993 47.5155 16.7701C48.0556 17.1335 48.6798 17.4154 49.388 17.6158Z" fill="black"/>
<path d="M58.9918 24.1591L67.7402 17.1659L68.8191 18.5156L61.3705 24.4699L66.046 30.3188L64.7463 31.3578L58.9918 24.1591Z" fill="black"/>
<path d="M66.5005 36.2453L68.1993 36.0334L68.5618 38.9389L76.278 37.9763L75.9155 35.0708L77.6144 34.8588L78.5532 42.3845L76.8544 42.5964L76.4919 39.691L68.7757 40.6536L69.1382 43.559L67.4393 43.771L66.5005 36.2453Z" fill="black"/>
<path d="M64.1851 54.6694C64.6457 53.7908 65.1942 53.0546 65.8307 52.4609C66.4765 51.8722 67.1721 51.4299 67.9173 51.1341C68.672 50.8432 69.4331 50.7123 70.2007 50.7414C70.9777 50.7754 71.7205 50.9782 72.4291 51.3496C73.1376 51.7211 73.7221 52.2142 74.1827 52.829C74.6526 53.4487 74.9779 54.1492 75.1585 54.9303C75.3486 55.7164 75.3805 56.5401 75.2542 57.4012C75.1374 58.2673 74.8486 59.1397 74.388 60.0183C73.9324 60.8874 73.3816 61.6164 72.7358 62.2051C72.0993 62.7988 71.4038 63.2411 70.6491 63.532C69.9039 63.8278 69.1428 63.9587 68.3657 63.9246C67.5932 63.905 66.8526 63.7095 66.1441 63.338C65.4356 62.9666 64.8488 62.4663 64.3838 61.8371C63.9232 61.2223 63.5979 60.5219 63.4079 59.7357C63.2273 58.9546 63.1954 58.1309 63.3122 57.2648C63.4385 56.4037 63.7295 55.5385 64.1851 54.6694ZM65.673 55.4494C65.3313 56.1013 65.109 56.7435 65.0062 57.3761C64.9129 58.0136 64.9228 58.615 65.036 59.1802C65.1586 59.7503 65.3803 60.2579 65.7009 60.703C66.031 61.1531 66.4512 61.5118 66.9613 61.7793C67.4714 62.0467 68.0008 62.1857 68.5492 62.1962C69.1072 62.2117 69.6507 62.1053 70.18 61.8769C70.7186 61.6535 71.2188 61.3195 71.6806 60.8752C72.1519 60.4357 72.5584 59.8901 72.9001 59.2382C73.2419 58.5864 73.4619 57.9369 73.5602 57.29C73.663 56.6574 73.6531 56.056 73.5304 55.4859C73.4173 54.9207 73.1956 54.4131 72.8655 53.963C72.5399 53.5274 72.122 53.1758 71.6119 52.9084C71.1017 52.6409 70.5702 52.4947 70.0172 52.4698C69.4687 52.4593 68.9251 52.5657 68.3865 52.7892C67.8572 53.0175 67.357 53.3515 66.8858 53.7909C66.419 54.2447 66.0148 54.7976 65.673 55.4494Z" fill="black"/>
<path d="M52.5077 65.8323C53.5359 65.3619 54.5308 65.1649 55.4923 65.2411C56.4583 65.3271 57.3255 65.6459 58.0939 66.1976C58.8624 66.7492 59.4641 67.5003 59.8989 68.4509L62.3349 73.7762L60.7636 74.495L58.3541 69.228C58.048 68.5587 57.6177 68.0283 57.0632 67.6368C56.5035 67.2594 55.8881 67.0424 55.2171 66.9857C54.5363 66.9335 53.8662 67.0583 53.2066 67.36C52.5082 67.6795 51.9562 68.1138 51.5505 68.663C51.1449 69.2122 50.9067 69.8197 50.8359 70.4854C50.7598 71.1654 50.8749 71.84 51.181 72.5093L53.5904 77.7764L52.0918 78.4619L49.6558 73.1366C49.2209 72.186 49.0461 71.2397 49.1312 70.2975C49.2163 69.3554 49.5422 68.4908 50.1088 67.7038C50.6799 66.9264 51.4795 66.3026 52.5077 65.8323Z" fill="black"/>
</svg>
